<svg width="390" height="296" viewBox="0 0 390 296" fill="none" xmlns="http://www.w3.org/2000/svg">
<g clip-path="url(#clip0_33_28891)">
<path d="M209.775 295.364C288.083 295.364 351.565 277.218 351.565 254.834C351.565 232.45 288.083 214.304 209.775 214.304C131.466 214.304 67.9841 232.45 67.9841 254.834C67.9841 277.218 131.466 295.364 209.775 295.364Z" fill="#F5F5F5"/>
<path d="M344.678 97.167C344.678 97.167 319.561 122.296 333.74 159.584C347.919 196.872 309.433 258.883 309.433 258.883C309.433 258.883 309.838 258.822 310.612 258.688C362.199 249.577 387.831 190.549 359.145 146.699C348.494 130.398 339.723 111.272 344.678 97.167Z" fill="#2091F9"/>
<path d="M344.678 97.167C344.678 97.167 330.499 127.97 344.678 153.099C358.857 178.228 347.109 248.75 309.433 258.883" stroke="#535461" stroke-width="2" stroke-miterlimit="10"/>
<path d="M389.411 198.805C389.411 198.805 360.749 194.237 358.136 219.937C355.523 245.638 303.04 249.196 303.04 249.196C303.04 249.196 303.381 249.431 304.025 249.853C347.372 278.321 388.811 267.986 382.569 230.183C380.231 216.132 380.417 202.015 389.411 198.805Z" fill="#2091F9"/>
<path opacity="0.2" d="M389.411 198.805C389.411 198.805 360.749 194.237 358.136 219.937C355.523 245.638 303.04 249.196 303.04 249.196C303.04 249.196 303.381 249.431 304.025 249.853C347.372 278.321 388.811 267.986 382.569 230.183C380.231 216.132 380.417 202.015 389.411 198.805Z" fill="#F5F5F5"/>
<path d="M389.411 198.805C389.411 198.805 367.162 203.693 368.989 223.934C370.816 244.174 335.936 268.428 303.024 249.188" stroke="#535461" stroke-width="2" stroke-miterlimit="10"/>
<path opacity="0.2" d="M61.8345 0.396668C58.5693 0.283183 55.223 0.396668 52.1603 1.53962C43.8271 4.6483 39.8772 14.8174 41.1614 23.6246C42.4457 32.4318 47.7284 40.0799 53.2096 47.0876C58.6908 54.0953 64.6298 61.0138 67.6357 69.3793C69.1347 73.558 69.8355 78.2392 68.3123 82.4098C65.9626 88.842 58.8772 92.437 52.0753 93.1827C45.2734 93.9285 38.4431 92.4735 31.6169 91.9668C28.7528 91.7642 25.8076 91.7399 23.1095 92.6802C20.1481 93.7056 17.681 95.797 15.4123 97.9775C6.56053 106.529 -0.524933 118.202 0.621544 130.458C1.91791 144.352 13.4799 155.336 26.1438 161.225C30.3368 163.179 34.7728 164.759 38.4634 167.548C48.1862 174.9 50.3697 188.676 49.4015 200.839C48.4333 213.003 45.1356 225.178 46.9708 237.236C49.1301 251.259 58.6868 263.925 71.5775 269.842C83.0626 275.111 97.4361 274.783 107.633 267.329C112.604 263.682 116.363 258.652 119.632 253.436C124.567 245.566 128.571 237.15 131.563 228.355C132.985 224.177 134.322 219.682 137.64 216.776C139.665 214.989 142.29 213.987 144.887 213.209C152.714 210.867 160.958 210.222 168.858 208.139C176.758 206.056 184.706 202.173 189 195.23C195.077 185.377 192.241 172.776 192.27 161.185C192.318 134.775 208.114 111.13 213.943 85.3928C215.847 76.9787 216.556 67.6689 212.303 60.1667C209.41 55.0478 204.536 51.4 199.412 48.5629C188.15 42.305 175.348 39.5206 162.753 36.8091C145.248 33.0479 123.991 32.5615 110.424 20.3943C97.4036 8.7216 79.5907 0.396668 61.8345 0.396668Z" fill="#2091F9"/>
<g opacity="0.5">
<path opacity="0.5" d="M125.332 102.618C125.331 96.2525 124.335 89.9262 122.379 83.8688L117.518 68.7875C117.518 68.5362 117.518 68.289 117.518 68.0417C117.667 58.3753 110.136 53.5522 107.236 54.075C104.266 54.61 96.0262 50.4759 96.0262 50.4759V50.5894C95.4613 49.9387 94.9517 49.2419 94.503 48.5061C95.9267 47.4688 97.1287 46.1571 98.0385 44.6483C98.9483 43.1395 99.5474 41.464 99.8006 39.7202C100.054 37.9764 99.9562 36.1996 99.5132 34.4942C99.0703 32.7887 98.291 31.1891 97.2213 29.7892C98.1119 29.1197 98.7912 28.208 99.178 27.1629C99.8505 25.2701 99.336 23.1098 98.2422 21.4238C97.7771 20.7199 97.2334 20.0713 96.6217 19.4905C95.6952 18.5721 94.6832 17.7442 93.5996 17.0181C90.8975 15.1456 87.928 13.5366 84.687 12.9651C84.1262 12.8326 83.5423 12.8326 82.9815 12.9651C82.4948 13.1616 82.0314 13.4117 81.6001 13.7108C79.38 14.9754 76.6171 14.4282 74.0568 14.2945C71.4965 14.1607 68.3852 14.8781 67.575 17.2816C67.3238 18.0233 67.34 18.8258 67.1698 19.5877C66.7647 21.4521 65.3266 22.8991 64.2165 24.4514C63.1065 26.0037 62.276 28.0991 63.1997 29.7852C63.5157 30.3526 64.0099 30.8754 64.0099 31.5239C64.0099 31.99 63.7345 32.4075 63.6048 32.8533C63.3253 33.8666 63.8519 34.8798 64.6622 35.6134C65.0113 35.99 65.4224 36.3039 65.8775 36.5416C67.1617 37.1982 68.6404 37.4008 69.9489 38.0088C70.6021 38.3157 71.2013 38.7263 71.7233 39.2247C72.3628 39.8944 72.8626 40.6848 73.1937 41.5497C73.5248 42.4146 73.6805 43.3369 73.6517 44.2626L73.9231 44.291C73.9231 44.372 73.9231 44.449 73.9231 44.5301C74.2067 44.5625 74.5065 44.5909 74.8022 44.6031C75.2276 45.2901 75.7144 45.9372 76.2566 46.5364C76.1648 46.8822 76.0608 47.2335 75.9446 47.5901C74.9926 48.2508 67.2063 53.4387 58.3505 52.1903C48.8991 50.8569 43.4949 92.1978 43.4949 92.1978C43.1446 94.562 42.9739 96.9493 42.9844 99.3393C42.9439 105.419 44.22 113.375 51.3298 112.204L55.1096 110.959V131.407C55.1096 131.407 55.6484 137.008 53.7605 140.729C51.8727 144.45 59.7036 143.128 59.7036 143.128C59.7036 143.128 60.0033 143.44 60.5543 143.971L60.3801 144.462L60.611 144.697C59.5811 148.219 58.1924 151.627 56.4667 154.866L56.6895 154.979C56.5477 155.251 56.4667 155.385 56.4667 155.385C56.4667 155.385 59.3754 156.872 63.378 158.789C66.5946 169.667 73.6355 194.861 71.3182 199.66L71.383 199.798C71.8165 200.698 74.2391 206.003 73.7489 210.863C73.3073 215.207 79.3193 234.95 81.5636 242.12L80.5022 242.334L84.2819 255.936L83.4717 264.739C83.4717 264.739 78.8817 277.008 89.6821 274.609C100.482 272.209 97.513 262.34 97.513 262.34L97.7844 242.334C97.7844 242.334 96.7433 241.755 95.4591 241.199C94.5759 238.812 92.6516 233.17 92.6516 229.267C92.6516 224.201 89.1392 202.327 89.1392 202.327V202.282V202.197V202.173L89.119 201.881V201.832C89.119 201.561 89.0744 201.188 89.042 200.734V200.71C88.6369 194.796 87.4216 174.705 88.3088 164.232C89.089 163.7 89.9007 163.216 90.7395 162.781C93.3687 169.428 100.146 187.387 99.7128 194.922C99.174 204.244 99.5791 196.924 99.7128 195.733C99.7533 195.364 99.7816 195.81 99.7938 196.811C99.7938 196.993 99.7938 197.196 99.7938 197.411C99.7938 197.625 99.7938 197.864 99.7938 198.112C99.7938 198.359 99.7938 198.626 99.7938 198.922C99.7938 199.063 99.7938 199.206 99.7938 199.352C99.7938 199.644 99.7938 199.949 99.7938 200.268C99.7938 200.427 99.7938 200.589 99.7938 200.754C99.7938 201.565 99.7938 202.465 99.7654 203.401C99.7654 203.587 99.7654 203.776 99.7654 203.968C99.7654 204.54 99.7654 205.123 99.7371 205.715C99.7371 206.526 99.7047 207.312 99.6885 208.127C99.648 209.951 99.5953 211.795 99.5305 213.521C99.5305 213.713 99.5237 213.904 99.5102 214.093C99.4967 214.471 99.4819 214.841 99.4657 215.203C99.4495 215.565 99.4333 215.919 99.417 216.265C99.4008 216.608 99.3833 216.942 99.3644 217.266C99.3441 217.647 99.3198 218.012 99.2996 218.361L97.833 218.15L97.5211 221.522C97.0297 226.876 97.7212 232.272 99.5467 237.329C100.049 238.715 100.438 239.862 100.523 240.271C100.794 241.605 100.523 251.215 100.523 251.215C100.523 251.215 102.143 263.751 109.707 261.347C113.11 260.265 114.763 256.974 115.553 253.675C116.429 249.85 116.102 245.848 114.617 242.217C113.543 239.517 112.446 235.732 113.219 232.806C114.568 227.739 114.568 220.537 114.568 220.537L113.734 220.42C113.942 220.024 114.13 219.618 114.297 219.204C114.297 219.204 114.026 200.799 116.456 198.399C117.793 197.078 117.672 193.905 117.266 191.311C116.688 187.557 116.552 183.748 116.861 179.962C117.027 178.013 117.266 176.314 117.546 175.711C118.259 174.3 118.972 160.082 115.816 153.241L116.464 153.038L116.363 152.535L116.464 152.503C116.94 153.774 117.481 155.02 118.085 156.236C118.244 156.361 118.428 156.452 118.624 156.503C127.37 154.967 127.722 146.8 127.236 142.342C127.605 142.52 127.808 142.634 127.808 142.634L128.618 130.88C129.448 129.003 129.756 126.608 129.736 124.018C129.772 114.761 125.332 102.618 125.332 102.618ZM115.691 136.027C115.091 130.908 114.26 126.089 114.26 126.089L110.209 111.685V106.44L116.634 130.434L115.691 136.027Z" fill="url(#paint0_linear_33_28891)"/>
</g>
<path d="M97.4765 214.709L97.1767 218.004C96.7037 223.24 97.3741 228.516 99.1415 233.466C99.6236 234.824 100 235.943 100.081 236.344C100.341 237.649 100.081 247.032 100.081 247.032C100.081 247.032 101.645 259.284 108.941 256.937C112.223 255.884 113.803 252.661 114.58 249.439C115.424 245.702 115.107 241.797 113.673 238.245C112.636 235.606 111.575 231.898 112.324 229.048C113.628 224.096 113.628 217.06 113.628 217.06L97.4765 214.709Z" fill="#5A5773"/>
<path d="M89.6619 158.145C89.6619 158.145 99.8222 182.909 99.2996 192.028C98.777 201.147 99.1699 193.982 99.2996 192.81C99.5305 190.723 99.2996 215.507 98.5177 218.345C98.5177 218.345 109.201 226.163 113.369 215.738C113.369 215.738 113.11 197.755 115.452 195.408C116.74 194.12 116.614 191.015 116.233 188.482C115.671 184.817 115.535 181.1 115.828 177.405C115.986 175.5 116.205 173.822 116.489 173.25C117.271 171.686 118.052 153.962 113.361 149.009L89.6619 158.145Z" fill="#605D82"/>
<path opacity="0.1" d="M99.8221 218.357C100.604 215.491 100.835 190.723 100.604 192.823C100.474 193.994 100.081 201.164 100.604 192.04C101.127 182.917 90.9663 158.157 90.9663 158.157L113.697 149.41C113.592 149.277 113.483 149.151 113.373 149.034L89.6659 158.157C89.6659 158.157 99.8262 182.921 99.3036 192.04C98.781 201.16 99.174 193.994 99.3036 192.823C99.5345 190.735 99.3036 215.52 98.5217 218.357C98.5217 218.357 102.788 221.477 106.981 221.145C103.249 220.865 99.8221 218.357 99.8221 218.357Z" fill="black"/>
<path d="M80.802 238.427L84.448 251.721L83.6662 260.322C83.6662 260.322 79.2383 272.311 89.6578 269.964C100.077 267.617 97.2132 257.975 97.2132 257.975L97.4725 238.427C97.4725 238.427 93.3039 236.081 91.4808 236.344C89.6578 236.607 80.802 238.427 80.802 238.427Z" fill="#5A5773"/>
<path d="M62.827 151.891C62.827 151.891 74.8103 190.727 71.9462 196.722C71.9462 196.722 74.8103 202.457 74.2918 207.665C73.7732 212.873 82.6291 240.766 82.6291 240.766L95.6576 238.419C95.6576 238.419 92.5301 230.601 92.5301 225.648C92.5301 220.695 89.1433 199.303 89.1433 199.303C89.1433 199.303 86.2792 160.204 89.6659 156.033L62.827 151.891Z" fill="#605D82"/>
<g opacity="0.1">
<path opacity="0.1" d="M88.6531 159.211C86.4938 168.063 88.88 200.637 88.88 200.637C88.88 200.637 92.2667 222.009 92.2667 226.982C92.2667 230.763 94.0857 236.21 94.9486 238.577L95.6535 238.452C95.6535 238.452 92.526 230.633 92.526 225.681C92.526 220.728 89.1392 199.336 89.1392 199.336C89.1392 199.336 86.9597 169.566 88.6531 159.211Z" fill="black"/>
<path opacity="0.1" d="M71.9462 196.722L72.011 196.855C72.0312 196.722 72.0515 196.58 72.0637 196.45C72.0292 196.542 71.99 196.633 71.9462 196.722Z" fill="black"/>
<path opacity="0.1" d="M89.0745 157.314C89.1928 156.864 89.3919 156.44 89.6619 156.062L62.827 151.891C62.827 151.891 62.985 152.398 63.2564 153.301L89.0745 157.314Z" fill="black"/>
</g>
<path d="M125.353 137.815C125.353 137.815 129.262 152.406 117.538 154.497C117.348 154.448 117.17 154.359 117.015 154.238C117.015 154.238 110.242 140.944 115.452 135.732L125.353 137.815Z" fill="#FAC3CA"/>
<path d="M77.4152 40.8621C77.4152 40.8621 78.197 51.8052 69.6005 57.0215C61.004 62.2378 87.8307 76.5693 87.8307 76.5693L101.9 54.152C101.9 54.152 95.9127 54.9261 92.2667 44.5098L77.4152 40.8621Z" fill="#FAC3CA"/>
<path opacity="0.1" d="M71.6829 57.7957C71.6829 57.7957 84.9707 85.4252 96.954 59.3601L115.452 151.105C115.452 151.105 86.7896 159.969 86.5344 164.139C86.2792 168.31 57.6213 153.455 57.6213 153.455C57.6213 153.455 63.8723 141.985 62.3126 134.949C60.7529 127.913 71.6829 57.7957 71.6829 57.7957Z" fill="black"/>
<path d="M71.6829 57.2729C71.6829 57.2729 84.9707 84.9025 96.954 58.8374L115.452 150.586C115.452 150.586 86.7896 159.45 86.5344 163.62C86.2792 167.791 57.6213 152.933 57.6213 152.933C57.6213 152.933 63.8723 141.463 62.3126 134.426C60.7529 127.39 71.6829 57.2729 71.6829 57.2729Z" fill="#E1E7EF"/>
<path d="M84.7114 245.727C84.7114 245.727 81.3246 238.168 89.1393 238.168C96.9539 238.168 95.6535 244.945 95.6535 244.945L84.7114 245.727Z" fill="#5A5773"/>
<path d="M102.427 226.175C102.427 226.175 99.2996 218.093 107.118 217.834C114.937 217.574 111.028 225.129 111.028 225.129L102.427 226.175Z" fill="#5A5773"/>
<path opacity="0.1" d="M95.7832 51.4001C95.7832 51.4001 103.728 55.4532 106.596 54.9182C109.464 54.3832 117.015 59.3481 116.497 69.2538L121.204 84.0311C123.087 89.9564 124.044 96.1373 124.04 102.355C124.04 102.355 130.814 121.12 127.168 129.462L126.386 140.932C126.386 140.932 120.394 137.543 114.139 138.585L115.715 129.218L108.666 102.626L96.9418 74.2147L95.7832 51.4001Z" fill="black"/>
<path d="M95.7832 50.8853C95.7832 50.8853 103.728 54.9383 106.596 54.4033C109.464 53.8683 117.015 58.8333 116.497 68.7389L121.204 83.5162C123.087 89.4415 124.044 95.6224 124.04 101.84C124.04 101.84 130.814 120.606 127.168 128.947L126.386 140.417C126.386 140.417 120.394 137.028 114.139 138.07L115.703 128.687L108.666 102.103L96.954 73.6917L95.7832 50.8853Z" fill="#67647E"/>
<path opacity="0.1" d="M108.941 82.5557V112.009L112.851 126.085C112.851 126.085 115.456 141.462 114.674 146.156C113.892 150.849 101.386 151.891 97.9992 147.98C94.6124 144.069 96.4354 110.692 96.4354 110.692L95.7832 61.8325L96.3058 60.2681L108.941 82.5557Z" fill="black"/>
<path d="M109.476 81.2546V110.708L113.385 124.784C113.385 124.784 115.99 140.161 115.208 144.855C114.427 149.548 101.921 150.59 98.5339 146.679C95.1471 142.767 96.9701 109.391 96.9701 109.391L96.3179 60.5193L109.476 81.2546Z" fill="#67647E"/>
<path opacity="0.1" d="M56.965 105.755L65.3022 131.695L61.3929 142.772C61.3929 142.772 79.8905 162.319 91.6145 152.937C91.6145 152.937 92.919 113.055 90.31 103.672C87.7011 94.2893 75.1992 62.7365 75.1992 62.7365L72.6105 54.4075L58.8042 62.2258L56.965 105.755Z" fill="black"/>
<path d="M56.3127 104.45V129.984C56.3127 129.984 56.8353 135.46 55.0083 139.108C53.1812 142.755 60.7406 141.454 60.7406 141.454C60.7406 141.454 79.2382 161.002 90.9623 151.619C90.9623 151.619 92.2667 111.737 89.6578 102.355C87.0488 92.9719 74.547 61.419 74.547 61.419L71.9421 53.0779L58.1357 60.8962L56.3127 104.45Z" fill="#67647E"/>
<path opacity="0.1" d="M76.5037 48.5427C76.5037 48.5427 68.5594 54.4075 59.4402 53.1024C50.3211 51.7973 45.1113 92.202 45.1113 92.202C45.1113 92.202 41.7246 113.055 52.6667 111.231L76.8967 103.149C76.8967 103.149 71.6869 97.6736 72.4688 90.6375L60.7407 95.3269L61.2673 72.9136L76.5037 48.5427Z" fill="black"/>
<path opacity="0.1" d="M45.6299 91.6792C45.6299 91.6792 42.2431 112.532 53.1853 110.708L77.4152 102.626C77.4152 102.626 72.2054 97.1549 72.9873 90.1147L61.2673 94.8082L45.6299 91.6792Z" fill="black"/>
<path d="M72.4121 92.8627C72.4121 92.8627 80.5428 82.1667 86.5304 87.3019C92.518 92.4371 74.5592 101.848 74.5592 101.848L72.4121 92.8627Z" fill="#FAC3CA"/>
<path d="M76.5037 48.0198C76.5037 48.0198 68.5594 53.8845 59.4402 52.5794C50.3211 51.2744 45.1113 91.679 45.1113 91.679C45.1113 91.679 41.7246 112.532 52.6667 110.708L76.8967 102.626C76.8967 102.626 71.6869 97.1506 72.4688 90.1146L60.7407 94.808L61.2673 72.3907L74.5551 61.4475L76.5037 48.0198Z" fill="#67647E"/>
<path opacity="0.1" d="M92.5261 45.0205L77.6746 41.3728C77.6746 41.3728 78.4483 42.2483 77.5449 45.6731C79.9351 48.417 82.8722 52.0607 86.7937 52.0607C89.6001 52.0659 92.3323 51.1599 94.58 49.4789C93.7413 48.0688 93.0528 46.5745 92.5261 45.0205Z" fill="black"/>
<path d="M86.5344 51.542C93.7298 51.542 99.5629 45.7062 99.5629 38.5075C99.5629 31.3087 93.7298 25.4729 86.5344 25.4729C79.3389 25.4729 73.5059 31.3087 73.5059 38.5075C73.5059 45.7062 79.3389 51.542 86.5344 51.542Z" fill="#FAC3CA"/>
<path opacity="0.1" d="M91.4728 32.8494C94.4949 32.3346 97.8169 30.9931 98.8297 28.0992C99.4779 26.247 98.9836 24.1394 97.9263 22.4898C96.8689 20.8402 95.3133 19.5716 93.709 18.4368C91.1041 16.6048 88.2318 15.0322 85.0963 14.481C84.5556 14.3517 83.9921 14.3517 83.4515 14.481C82.9813 14.6736 82.5343 14.9183 82.1187 15.2106C79.9756 16.4467 77.3099 15.9117 74.8266 15.782C72.3432 15.6523 69.3656 16.3535 68.5837 18.7002C68.3407 19.4257 68.3569 20.208 68.1786 20.9537C67.7735 22.7776 66.4002 24.1961 65.3428 25.716C64.2855 27.2359 63.4712 29.2908 64.3624 30.9282C64.6663 31.4835 65.1727 31.9942 65.1727 32.6264C65.0945 33.0758 64.9583 33.5132 64.7676 33.9275C64.3989 35.2731 65.4725 36.6308 66.7121 37.2712C67.9518 37.9116 69.3778 38.1102 70.6417 38.706C71.8248 39.29 72.8152 40.2018 73.4953 41.3327C74.1755 42.4636 74.5166 43.7662 74.4782 45.0855C75.6287 45.2192 76.9696 45.2881 77.7475 44.4289C78.0959 44.0438 78.266 43.5291 78.582 43.1198C78.9871 42.5848 79.6191 42.2686 80.1376 41.839C82.8641 39.5977 80.9276 36.5011 82.4711 34.0855C83.2813 32.8413 84.5696 33.2222 85.8741 33.2425C87.7485 33.2864 89.6229 33.1548 91.4728 32.8494Z" fill="black"/>
<path d="M91.2135 32.5898C94.2357 32.0751 97.5576 30.7336 98.5704 27.8397C99.2186 25.9875 98.7243 23.8799 97.667 22.2303C96.6096 20.5807 95.054 19.3121 93.4497 18.1773C90.8448 16.3453 87.9726 14.7727 84.837 14.2215C84.2963 14.0922 83.7328 14.0922 83.1922 14.2215C82.7221 14.414 82.275 14.6587 81.8594 14.951C79.7163 16.1872 77.0507 15.6522 74.5673 15.5225C72.0839 15.3928 69.1063 16.094 68.3245 18.4407C68.0814 19.1662 68.0976 19.9484 67.9194 20.6942C67.5142 22.5181 66.1409 23.9366 65.0836 25.4565C64.0262 26.9764 63.2119 29.0313 64.1032 30.6687C64.407 31.224 64.9134 31.7347 64.9134 32.3669C64.8352 32.8163 64.699 33.2537 64.5083 33.668C64.1396 35.0136 65.2132 36.3713 66.4528 37.0117C67.6925 37.6521 69.1185 37.8507 70.3825 38.4465C71.5703 39.0299 72.565 39.9434 73.2476 41.0777C73.9301 42.2119 74.2715 43.5189 74.2311 44.8422C75.3816 44.9759 76.7225 45.0448 77.5003 44.1856C77.8487 43.8005 78.0189 43.2858 78.3349 42.8764C78.74 42.3414 79.372 42.0253 79.8905 41.5957C82.6169 39.3544 80.6805 36.2578 82.224 33.8422C83.0342 32.5979 84.3225 32.9789 85.627 32.9992C87.4978 33.037 89.3681 32.8999 91.2135 32.5898Z" fill="#4A4347"/>
<path opacity="0.1" d="M106.985 76.4316C106.985 76.4316 109.849 91.2901 108.548 97.0251C107.754 100.361 107.871 103.85 108.889 107.125" fill="black"/>
<path opacity="0.1" d="M60.684 82.6853C60.684 82.6853 59.4362 92.5909 61.5144 94.6742L60.684 82.6853Z" fill="black"/>
<path d="M133.431 204.759C133.592 204.759 133.746 204.695 133.86 204.581C133.974 204.467 134.038 204.312 134.038 204.151C134.038 203.99 133.974 203.835 133.86 203.721C133.746 203.607 133.592 203.543 133.431 203.543C133.269 203.543 133.115 203.607 133.001 203.721C132.887 203.835 132.823 203.99 132.823 204.151C132.823 204.312 132.887 204.467 133.001 204.581C133.115 204.695 133.269 204.759 133.431 204.759Z" fill="black"/>
<g opacity="0.5">
<path opacity="0.5" d="M320.541 133.932V133.596L210.01 48.5629C209.94 48.5113 209.855 48.4834 209.769 48.4834C209.682 48.4834 209.597 48.5113 209.527 48.5629L98.9917 133.596V265.4H99.2024V265.611H320.756V133.806L320.541 133.932Z" fill="url(#paint1_linear_33_28891)"/>
</g>
<path d="M316.725 261.724H102.824V134.459L209.775 52.1824L316.725 134.459V261.724Z" fill="white"/>
<path d="M309.028 254.181H110.521V136.076L209.775 59.7209L309.028 136.076V254.181Z" fill="#E0E0E0"/>
<path d="M243.447 57.9562L122.358 89.7153L162.732 243.793L283.821 212.034L243.447 57.9562Z" fill="#2091F9"/>
<path d="M272.973 81.3643H147.792V240.648H272.973V81.3643Z" fill="#F5F5F5"/>
<path opacity="0.05" d="M103.837 134.661L210.787 198.294L103.837 261.927V134.661Z" fill="black"/>
<path d="M103.027 134.661L209.977 198.294L103.027 261.927V134.661Z" fill="white"/>
<path opacity="0.05" d="M316.117 134.661L209.167 198.294L316.117 261.927V134.661Z" fill="black"/>
<path d="M316.928 134.661L209.977 198.294L316.928 261.927V134.661Z" fill="white"/>
<path opacity="0.05" d="M103.027 259.9L209.977 176.408L316.928 259.9H103.027Z" fill="black"/>
<path d="M103.027 261.927L209.977 178.434L316.928 261.927H103.027Z" fill="white"/>
<path d="M124.761 271.593C124.761 271.593 119.389 253.355 125.77 239.923C128.481 234.308 129.298 227.965 128.099 221.846C127.508 218.946 126.652 216.107 125.543 213.363" stroke="#535461" stroke-width="2" stroke-miterlimit="10"/>
<path d="M129.509 204.876C129.509 207.114 125.458 213.594 125.458 213.594C125.458 213.594 121.407 207.109 121.407 204.876C121.407 203.801 121.834 202.77 122.593 202.01C123.353 201.25 124.383 200.823 125.458 200.823C126.532 200.823 127.563 201.25 128.322 202.01C129.082 202.77 129.509 203.801 129.509 204.876Z" fill="#6C63FF"/>
<path d="M136.214 217.262C134.998 219.139 128.079 222.381 128.079 222.381C128.079 222.381 128.205 214.737 129.42 212.861C130.026 212.012 130.935 211.43 131.96 211.235C132.984 211.04 134.044 211.247 134.919 211.814C135.794 212.381 136.417 213.264 136.658 214.279C136.899 215.293 136.74 216.362 136.214 217.262Z" fill="#6C63FF"/>
<path d="M135.906 238.423C133.909 239.428 126.301 238.735 126.301 238.735C126.301 238.735 130.267 232.202 132.26 231.197C132.737 230.93 133.263 230.762 133.806 230.704C134.35 230.645 134.9 230.698 135.422 230.858C135.945 231.018 136.43 231.282 136.848 231.634C137.266 231.987 137.609 232.42 137.855 232.908C138.101 233.396 138.246 233.929 138.281 234.475C138.316 235.021 138.24 235.568 138.058 236.084C137.875 236.599 137.591 237.073 137.221 237.476C136.851 237.878 136.404 238.202 135.906 238.427V238.423Z" fill="#6C63FF"/>
<path d="M132.082 254.388C130.283 255.717 122.667 256.317 122.667 256.317C122.667 256.317 125.47 249.208 127.269 247.879C128.134 247.301 129.189 247.079 130.214 247.258C131.238 247.437 132.155 248.003 132.774 248.84C133.393 249.677 133.666 250.72 133.537 251.753C133.408 252.786 132.887 253.729 132.082 254.388Z" fill="#6C63FF"/>
<path d="M119.567 222.811C121.188 224.367 128.638 225.984 128.638 225.984C128.638 225.984 126.811 218.563 125.207 217.007C124.426 216.317 123.41 215.954 122.37 215.994C121.329 216.033 120.344 216.472 119.618 217.22C118.892 217.967 118.482 218.965 118.473 220.007C118.463 221.049 118.855 222.055 119.567 222.815V222.811Z" fill="#6C63FF"/>
<path d="M115.33 241.54C117.327 242.545 124.935 241.852 124.935 241.852C124.935 241.852 120.969 235.319 118.976 234.313C118.024 233.883 116.943 233.837 115.959 234.185C114.974 234.533 114.161 235.248 113.691 236.181C113.221 237.114 113.129 238.193 113.434 239.192C113.739 240.191 114.419 241.034 115.33 241.544V241.54Z" fill="#6C63FF"/>
<path d="M113.71 260.306C115.508 261.635 123.124 262.235 123.124 262.235C123.124 262.235 120.321 255.126 118.522 253.796C118.098 253.449 117.607 253.191 117.08 253.039C116.553 252.888 116 252.844 115.456 252.912C114.912 252.98 114.387 253.158 113.913 253.435C113.44 253.712 113.027 254.082 112.701 254.524C112.375 254.965 112.141 255.468 112.015 256.002C111.889 256.536 111.873 257.09 111.967 257.631C112.061 258.171 112.264 258.687 112.564 259.147C112.863 259.607 113.253 260.001 113.71 260.306Z" fill="#6C63FF"/>
<path opacity="0.5" d="M205.318 88.6597H155.084V92.7127H205.318V88.6597Z" fill="#6C63FF"/>
<path opacity="0.5" d="M263.655 104.872H155.084V108.925H263.655V104.872Z" fill="#6C63FF"/>
<path opacity="0.5" d="M263.655 115.41H155.084V119.463H263.655V115.41Z" fill="#6C63FF"/>
<path opacity="0.4" d="M263.655 125.948H155.084V130.001H263.655V125.948Z" fill="#6C63FF"/>
<path opacity="0.4" d="M263.655 136.485H155.084V140.538H263.655V136.485Z" fill="#6C63FF"/>
<path opacity="0.3" d="M217.067 147.023H155.084V151.076H217.067V147.023Z" fill="#6C63FF"/>
<path opacity="0.3" d="M239.753 157.561H155.084V161.614H239.753V157.561Z" fill="#6C63FF"/>
</g>
<defs>
<linearGradient id="paint0_linear_33_28891" x1="42.9885" y1="143.915" x2="129.691" y2="143.915" gradientUnits="userSpaceOnUse">
<stop stop-color="#808080" stop-opacity="0.25"/>
<stop offset="0.54" stop-color="#808080" stop-opacity="0.12"/>
<stop offset="1" stop-color="#808080" stop-opacity="0.1"/>
</linearGradient>
<linearGradient id="paint1_linear_33_28891" x1="141325" y1="160842" x2="141325" y2="44516.2" gradientUnits="userSpaceOnUse">
<stop stop-color="#808080" stop-opacity="0.25"/>
<stop offset="0.54" stop-color="#808080" stop-opacity="0.12"/>
<stop offset="1" stop-color="#808080" stop-opacity="0.1"/>
</linearGradient>
<clipPath id="clip0_33_28891">
<rect width="389" height="295" fill="white" transform="translate(0.5 0.364258)"/>
</clipPath>
</defs>
</svg>
